<svg width="32" height="32" viewBox="0 0 32 32" fill="none" xmlns="http://www.w3.org/2000/svg">
<g clip-path="url(#clip0_392_18)">
<path d="M18.4874 0.0623524C17.4249 0.249852 16.3687 0.806102 15.6749 1.54985C15.0999 2.16235 14.6124 3.07485 14.4249 3.8686L14.3562 4.18735H9.36865C5.96865 4.18735 4.2749 4.21235 4.0499 4.2561C2.88115 4.49985 1.8749 5.5061 1.63115 6.67485C1.58115 6.9061 1.5624 8.98735 1.5624 13.4374V19.8749H1.03115C0.412402 19.8749 0.181152 19.9624 0.0686523 20.2374C0.0124023 20.3686 -0.00634766 20.7811 0.0124023 21.6311C0.0311523 22.7874 0.0374023 22.8624 0.193652 23.1936C0.424902 23.6874 0.756152 24.0249 1.2374 24.2624L1.65615 24.4686L4.7749 24.4874C6.90615 24.4999 7.9499 24.4811 8.0624 24.4374C8.1499 24.3999 8.2749 24.2874 8.33115 24.1936C8.49365 23.9124 8.4624 23.6999 8.2249 23.4624L8.0124 23.2499H4.9999C1.66865 23.2499 1.70615 23.2561 1.41865 22.8499C1.2999 22.6811 1.28115 22.5624 1.2624 21.8936L1.2374 21.1249H10.2687H19.2937L19.3374 21.4436C19.3937 21.8436 19.6812 22.6436 19.8999 22.9874L20.0624 23.2499H16.6874C13.0187 23.2499 13.0437 23.2499 12.8874 23.5936C12.7937 23.7999 12.7937 23.9499 12.8874 24.1561C13.0437 24.4936 13.0687 24.4999 16.1062 24.4999L18.9062 24.5061L18.2812 24.7124C17.5312 24.9561 17.1999 25.1186 16.7562 25.4561C16.1312 25.9374 15.6499 26.7374 15.4749 27.5748C15.3999 27.9498 15.3749 28.4498 15.3749 29.8186V31.5748L15.5874 31.7873L15.7999 31.9998H23.6499C32.2499 31.9998 31.7749 32.0186 31.9312 31.6373C31.9874 31.4998 32.0062 30.9373 31.9874 29.5248C31.9687 27.6061 31.9687 27.5936 31.7999 27.1248C31.5937 26.5624 31.1499 25.8999 30.7562 25.5561C30.2937 25.1561 29.6249 24.8686 28.1124 24.4061L26.6999 23.9811L26.9874 23.6499C27.5562 23.0124 27.9187 22.2436 28.0562 21.3749C28.1437 20.8499 28.1437 18.7748 28.0562 18.2498C27.8999 17.2873 27.5312 16.5498 26.8312 15.8186L26.3749 15.3436V12.6436V9.9436L26.6124 9.9061C28.3999 9.59985 29.7249 8.6186 30.4687 7.0436C30.8124 6.3186 30.9062 5.88735 30.9062 4.9686C30.9062 4.04985 30.8124 3.6186 30.4687 2.8936C29.8312 1.53735 28.7624 0.618602 27.2999 0.174852C26.8499 0.0373524 26.7874 0.0373524 22.8124 0.0248524C20.5937 0.0186024 18.6499 0.0373524 18.4874 0.0623524ZM26.6624 1.3186C26.8624 1.34985 27.2874 1.5061 27.5937 1.6561C28.5062 2.0936 29.1624 2.83735 29.5062 3.81235C29.7187 4.4061 29.7187 5.4686 29.5062 6.11235C29.1437 7.2186 28.2687 8.09985 27.1249 8.5061C26.7312 8.64985 26.6374 8.6561 24.1437 8.68735L21.5624 8.7186L21.4187 8.87485C21.3374 8.96235 21.2187 9.1686 21.1624 9.3311C21.0187 9.71235 20.4812 10.2936 20.0562 10.5249L19.7312 10.7061L19.7749 10.5561C19.7999 10.4749 19.8374 10.1124 19.8562 9.7436C19.8874 9.1186 19.8812 9.0811 19.7374 8.91235C19.6062 8.7561 19.5312 8.7311 19.0437 8.6811C17.7999 8.5561 16.8437 7.99985 16.1937 7.0311C15.4812 5.9686 15.3687 4.6061 15.8937 3.4311C16.3437 2.42485 17.3874 1.57485 18.4624 1.3436C18.9499 1.23735 26.0812 1.21235 26.6624 1.3186ZM14.3749 5.7936C14.7749 7.8186 16.2312 9.3686 18.1374 9.7936L18.6249 9.9061L18.5874 10.1249C18.5499 10.3249 18.4874 10.5124 18.2249 11.2186C18.1062 11.5499 18.1562 11.7749 18.3999 11.9749C18.5812 12.1311 18.6187 12.1374 19.0749 12.1061C19.6374 12.0624 20.2937 11.8499 20.7999 11.5499C21.2499 11.2811 21.8687 10.6686 22.0999 10.2624L22.2812 9.93735H23.7062H25.1249V12.3124C25.1249 13.6186 25.1062 14.6873 25.0812 14.6873C25.0499 14.6811 24.8624 14.6436 24.6562 14.5936C24.1124 14.4623 23.1812 14.4748 22.5999 14.6248C21.5812 14.8811 20.6062 15.5686 20.0437 16.4248C19.4937 17.2561 19.3249 17.8248 19.2687 19.0436L19.2312 19.8749H18.0562H16.8749V18.9373C16.8749 17.5311 16.7124 16.9936 16.0874 16.3186C15.6562 15.8498 15.2437 15.6373 14.0937 15.2873C13.5812 15.1248 13.1187 14.9811 13.0749 14.9686C13.0124 14.9436 13.0374 14.8811 13.1499 14.7373C13.3874 14.4248 13.5562 13.9749 13.6562 13.3811C13.7124 13.0874 13.8374 12.5186 13.9437 12.1249C14.2874 10.8499 14.2499 9.99985 13.7999 9.0686C13.5124 8.4811 12.7937 7.77485 12.1812 7.4811C10.0312 6.46235 7.5749 7.67485 7.0874 9.99985C6.95615 10.6061 6.9999 11.1499 7.24365 12.0624C7.3499 12.4561 7.48115 13.0311 7.53115 13.3436C7.63115 13.9061 7.81865 14.4123 8.0624 14.7561C8.1624 14.8936 8.1749 14.9436 8.1124 14.9686C8.06865 14.9811 7.6124 15.1248 7.09365 15.2873C5.96865 15.6311 5.5374 15.8498 5.13115 16.2811C4.5124 16.9373 4.3124 17.5811 4.3124 18.9811V19.8749H3.5624H2.8124V13.4811C2.8124 6.47485 2.7999 6.7311 3.18115 6.2061C3.4124 5.88735 3.6874 5.68735 4.09365 5.54985C4.38115 5.44985 4.8249 5.4436 9.35615 5.43735H14.3062L14.3749 5.7936ZM11.6374 8.61235C12.2874 8.9311 12.7874 9.58735 12.9124 10.2811L12.9562 10.5311L12.6749 10.2436C12.2312 9.78735 12.0874 9.7936 11.3124 10.2874C10.7374 10.6499 9.55615 10.9749 8.6249 11.0124L8.28115 11.0311L8.2874 10.5874C8.2999 9.8811 8.6749 9.17485 9.2499 8.7811C9.68115 8.4811 10.0874 8.3686 10.6874 8.38735C11.1437 8.4061 11.2812 8.43735 11.6374 8.61235ZM12.2187 11.7186C12.3874 11.9936 12.4062 12.0811 12.4249 12.6311C12.4624 13.6561 12.1624 14.2561 11.4312 14.6186C10.6749 14.9936 9.83115 14.8436 9.26865 14.2311C8.8999 13.8311 8.80615 13.5686 8.76865 12.8686L8.73115 12.2686L9.19365 12.2249C9.9999 12.1436 11.7249 11.6249 11.8499 11.4249C11.9124 11.3186 12.0249 11.4124 12.2187 11.7186ZM24.4937 15.8436C25.6624 16.1498 26.5937 17.1623 26.8062 18.3373C26.8937 18.8186 26.8937 20.8061 26.8062 21.2874C26.6999 21.8749 26.3562 22.5186 25.9187 22.9624C25.2999 23.5749 24.5687 23.8749 23.6874 23.8749C22.2812 23.8749 21.0937 22.9999 20.6687 21.6561C20.5437 21.2561 20.5312 21.0936 20.5312 19.8124C20.5312 18.5311 20.5437 18.3686 20.6687 17.9686C20.9999 16.9311 21.8312 16.1248 22.8749 15.8373C23.2624 15.7311 24.0874 15.7311 24.4937 15.8436ZM9.83115 15.9936C9.9999 16.0561 9.9999 16.0686 9.9999 16.5936C9.9999 17.2123 10.0812 17.3936 10.4062 17.4998C10.5687 17.5561 10.6624 17.5498 10.8437 17.4748C11.1374 17.3498 11.2499 17.0811 11.2499 16.4811V16.0186L11.4999 15.9436C11.7374 15.8748 11.8374 15.8936 13.1999 16.3123C14.7124 16.7748 15.0062 16.9123 15.2812 17.2748C15.5562 17.6311 15.6249 17.9873 15.6249 18.9811V19.8749H14.9062H14.1874V19.0873C14.1874 18.3061 14.1874 18.2998 14.0062 18.1186C13.6812 17.7998 13.2062 17.9123 13.0249 18.3498C12.9687 18.4811 12.9374 18.7936 12.9374 19.2186V19.8749H10.5937H8.2499V19.1561C8.2499 18.3686 8.19365 18.1623 7.93115 18.0248C7.71865 17.9186 7.55615 17.9123 7.34365 18.0123C7.0624 18.1373 6.9999 18.3561 6.9999 19.1561V19.8749H6.28115H5.5624V19.0436C5.5624 18.5936 5.58115 18.1123 5.5999 17.9811C5.65615 17.6436 5.99365 17.1186 6.26865 16.9373C6.56865 16.7436 9.2874 15.8748 9.4999 15.9061C9.5874 15.9186 9.73115 15.9561 9.83115 15.9936ZM22.5937 24.9999C23.2562 25.1686 24.1062 25.1686 24.8124 24.9936L25.3437 24.8624L27.3124 25.4686C28.3937 25.7999 29.3999 26.1374 29.5374 26.2186C29.9187 26.4436 30.4062 27.0061 30.5749 27.4248C30.7062 27.7561 30.7187 27.8873 30.7374 29.2686L30.7562 30.7498H23.6874H16.6124L16.6374 29.2623C16.6562 27.8936 16.6749 27.7561 16.8062 27.4186C16.9812 26.9749 17.5187 26.3749 17.9124 26.1811C18.2062 26.0436 21.8249 24.8936 22.0062 24.8811C22.0624 24.8749 22.3249 24.9311 22.5937 24.9999Z" fill="#FF69B4"/>
<path d="M18.6187 3.18091C18.3687 3.43091 18.3687 3.73716 18.6187 4.01216L18.7999 4.21841L22.3562 4.23716C24.3062 4.24966 26.0312 4.23716 26.1812 4.21841C26.7687 4.13091 27.0124 3.56841 26.6312 3.18091L26.4499 2.99966H22.6249H18.7999L18.6187 3.18091Z" fill="#FF69B4"/>
<path d="M18.6187 5.93091C18.3687 6.18091 18.3687 6.48716 18.6187 6.76216L18.7999 6.96841L22.3562 6.98716C24.3062 6.99966 26.0312 6.98716 26.1812 6.96841C26.7687 6.88091 27.0124 6.31841 26.6312 5.93091L26.4499 5.74966H22.6249H18.7999L18.6187 5.93091Z" fill="#FF69B4"/>
<path d="M10.3188 23.3375C10.2376 23.3812 10.1313 23.4875 10.0876 23.5687C9.7001 24.275 10.7376 24.8812 11.1438 24.1875C11.3063 23.9125 11.2751 23.7 11.0376 23.4625C10.8063 23.2312 10.5813 23.1937 10.3188 23.3375Z" fill="#FF69B4"/>
</g>
<defs>
<clipPath id="clip0_392_18">
<rect width="32" height="32" fill="white"/>
</clipPath>
</defs>
</svg>
