<svg width="32" height="32" viewBox="0 0 32 32" fill="none" xmlns="http://www.w3.org/2000/svg">
<g clip-path="url(#clip0_392_24)">
<path d="M2.18113 0.1125C1.11863 0.39375 0.262383 1.30625 0.0623828 2.36875C-0.0313672 2.85625 -0.0251172 25.1937 0.0686328 25.6375C0.237383 26.45 0.818633 27.225 1.55613 27.6187C2.25613 27.9937 2.35613 28 6.92488 28H11.0624V29.0625V30.1187L9.34988 30.1375C7.71863 30.1562 7.62488 30.1625 7.45613 30.2875C6.91863 30.6937 6.91863 31.4312 7.45613 31.8375L7.63113 31.9688H15.9999H24.3686L24.5436 31.8375C25.0811 31.4312 25.0811 30.6937 24.5436 30.2875C24.3749 30.1625 24.2811 30.1562 22.6499 30.1375L20.9374 30.1187V29.0625V28H25.0811C29.6499 28 29.7436 27.9937 30.4499 27.6125C31.1811 27.225 31.7624 26.45 31.9311 25.6375C31.9811 25.4 31.9999 21.9937 31.9936 13.95C31.9936 1.28125 32.0249 2.18125 31.5624 1.4125C31.1561 0.74375 30.3874 0.20625 29.6311 0.0624995C29.4124 0.0249995 24.6436 -4.76371e-07 15.9436 0.00624952C3.53113 0.00624952 2.56238 0.0124995 2.18113 0.1125ZM29.4186 1.94375C29.6561 2.03125 29.9374 2.3 30.0374 2.54375C30.1124 2.7125 30.1249 4.275 30.1249 11.9812C30.1249 20.8562 30.1186 21.2312 30.0061 21.475C29.9436 21.6187 29.7936 21.8 29.6811 21.8812L29.4686 22.0312H15.9999H2.53113L2.31863 21.8812C2.20613 21.8 2.05613 21.6187 1.99363 21.475C1.88113 21.2312 1.87488 20.8562 1.87488 11.9875C1.87488 5.6125 1.89363 2.70625 1.94363 2.58125C2.03113 2.35 2.29988 2.06875 2.53113 1.9625C2.68738 1.89375 5.03738 1.88125 15.9811 1.875C25.2061 1.875 29.2936 1.89375 29.4186 1.94375ZM15.9999 23.9375C27.5436 23.9375 29.5874 23.925 29.8374 23.85L30.1374 23.7562L30.1124 24.5875C30.0936 25.3875 30.0874 25.425 29.9124 25.65C29.8124 25.7812 29.6186 25.9437 29.4749 26.0062C29.2249 26.1187 28.7749 26.125 15.9999 26.125C3.22488 26.125 2.77488 26.1187 2.52488 26.0062C2.38113 25.9437 2.18738 25.7812 2.08738 25.65C1.91238 25.425 1.90613 25.3875 1.88738 24.5875L1.86238 23.7562L2.16238 23.85C2.41238 23.925 4.45613 23.9375 15.9999 23.9375ZM19.0624 29.0625V30.125H15.9999H12.9374V29.0625V28H15.9999H19.0624V29.0625Z" fill="#FF69B4"/>
<path d="M5.56261 5.13749C5.03761 5.39999 4.88136 5.97499 5.19386 6.47499C5.45636 6.90624 4.64386 6.87499 16.0001 6.87499C27.3564 6.87499 26.5439 6.90624 26.8064 6.47499C27.1189 5.97499 26.9626 5.39999 26.4376 5.13749L26.1626 4.99999H16.0001H5.83761L5.56261 5.13749Z" fill="#FF69B4"/>
<path d="M8.49978 10.1938C8.38103 10.2626 7.98103 10.6251 7.61228 10.9876L6.93728 11.6501L6.70603 11.4251C6.39978 11.1376 6.24978 11.0626 5.96853 11.0626C5.49978 11.0626 5.13728 11.3688 5.03103 11.8563C4.96228 12.1938 5.16853 12.5313 5.88103 13.2251C6.61853 13.9438 6.82478 14.0376 7.28728 13.8438C7.55603 13.7376 9.62478 11.7251 9.79353 11.4126C9.92478 11.1563 9.91228 10.7313 9.75603 10.4751C9.50603 10.0751 8.91853 9.94384 8.49978 10.1938Z" fill="#FF69B4"/>
<path d="M12.5123 11.1875C11.8936 11.5687 11.9186 12.4562 12.5623 12.7937L12.8373 12.9375L19.5873 12.925L26.3436 12.9062L26.5561 12.7562C26.8248 12.5625 27.0248 12.1312 26.9686 11.8562C26.8998 11.55 26.7061 11.275 26.4748 11.1625C26.2811 11.075 25.5811 11.0625 19.4873 11.0625C12.8436 11.0625 12.7123 11.0625 12.5123 11.1875Z" fill="#FF69B4"/>
<path d="M5.62483 16.1312C5.37483 16.2312 5.12483 16.5062 5.05608 16.7624C4.96858 17.0999 5.06858 17.4062 5.38108 17.7249L5.64358 17.9937L5.36233 18.3062C5.05608 18.6437 4.96858 18.9124 5.05608 19.2249C5.14358 19.5312 5.26233 19.6874 5.51233 19.8187C5.94358 20.0374 6.34983 19.9562 6.71233 19.5687C6.81858 19.4624 6.93108 19.3749 6.96858 19.3749C7.00608 19.3749 7.11858 19.4624 7.22483 19.5687C7.46858 19.8249 7.69358 19.9374 7.98108 19.9374C8.46233 19.9374 8.87483 19.5124 8.87483 19.0124C8.87483 18.6874 8.80608 18.5437 8.51233 18.2312L8.28733 17.9999L8.51233 17.7624C8.80608 17.4562 8.87483 17.3124 8.87483 16.9999C8.87483 16.3624 8.30608 15.9312 7.69358 16.1124C7.56858 16.1499 7.35608 16.2937 7.22483 16.4312L6.98108 16.6812L6.70608 16.4312C6.31233 16.0687 5.99983 15.9812 5.62483 16.1312Z" fill="#FF69B4"/>
<path d="M12.5685 17.2C12.206 17.3875 12.0435 17.675 12.081 18.0812C12.1122 18.4375 12.2685 18.675 12.5685 18.825C12.7685 18.9312 13.231 18.9375 19.5372 18.9375H26.2935L26.4997 18.7937C26.8372 18.5687 26.9622 18.35 26.9622 18C26.9622 17.6625 26.8497 17.4562 26.5372 17.225C26.3685 17.0937 26.3247 17.0937 19.606 17.075L12.8435 17.0625L12.5685 17.2Z" fill="#FF69B4"/>
</g>
<defs>
<clipPath id="clip0_392_24">
<rect width="32" height="32" fill="white"/>
</clipPath>
</defs>
</svg>
