<svg width="32" height="32" viewBox="0 0 32 32" fill="none" xmlns="http://www.w3.org/2000/svg">
<path d="M16.3124 1.36862C16.9749 1.58112 17.3124 2.03112 17.3124 2.68737C17.3124 3.06862 17.1561 3.40612 16.8499 3.67487C16.5686 3.92487 16.3311 3.98112 15.4061 4.02487C9.74989 4.29362 5.09364 8.46237 4.14364 14.0999C3.98114 15.0936 3.99364 17.0749 4.17489 18.0624C5.47489 25.2124 12.5936 29.5686 19.5249 27.4686C23.1999 26.3561 26.1561 23.4749 27.3686 19.8436C27.7499 18.7061 27.9999 17.2686 27.9999 16.2374C27.9999 15.7186 28.0874 15.4186 28.3249 15.1499C28.5936 14.8436 28.9311 14.6874 29.3124 14.6874C29.8624 14.6874 30.2624 14.9249 30.5186 15.4061C30.6436 15.6311 30.6561 15.7436 30.6436 16.4436C30.6186 18.4374 30.1186 20.4749 29.1874 22.4061C27.3499 26.2124 23.7749 29.1499 19.7186 30.1811C15.2874 31.3124 10.8499 30.4374 7.18739 27.7124C6.34364 27.0874 4.91239 25.6561 4.28739 24.8124C1.93739 21.6561 0.943645 17.8436 1.46864 14.0311C2.30614 7.94362 6.89364 2.98112 12.9061 1.66862C13.9999 1.42487 15.9686 1.25612 16.3124 1.36862Z" fill="#FF69B4"/>
<path d="M21.4874 2.4C22.1312 2.6125 22.4687 3.10625 22.4249 3.78125C22.3937 4.275 22.1687 4.6375 21.7562 4.85625C20.8687 5.31875 19.7562 4.66875 19.7499 3.68125C19.7499 2.8 20.6499 2.13125 21.4874 2.4Z" fill="#FF69B4"/>
<path d="M25.6251 5.24996C26.2751 5.36871 26.7563 5.93746 26.7563 6.59371C26.7563 7.00621 26.6251 7.30621 26.3126 7.58746C25.9126 7.94996 25.4188 8.02496 24.9376 7.80621C24.2938 7.51246 23.9688 6.89996 24.1251 6.25621C24.2876 5.58121 24.9563 5.13121 25.6251 5.24996Z" fill="#FF69B4"/>
<path d="M16.6248 6.82493C16.781 6.91243 16.9873 7.09993 17.0935 7.24368L17.281 7.51243L17.2998 11.3374L17.3123 15.1562L19.6373 16.3124C21.2185 17.0999 22.0498 17.5437 22.231 17.7124C22.9248 18.3374 22.7623 19.4249 21.9123 19.8437C21.2873 20.1499 21.2873 20.1499 17.9935 18.4874C15.2623 17.1187 15.081 17.0124 14.906 16.7624L14.7185 16.4874L14.6998 12.0687L14.6873 7.64993L14.831 7.36868C15.056 6.94368 15.4123 6.72493 15.9248 6.69993C16.2748 6.68118 16.3873 6.69993 16.6248 6.82493Z" fill="#FF69B4"/>
<path d="M28.9312 9.69971C29.45 9.95596 29.7812 10.6747 29.6312 11.2247C29.35 12.2685 28.0312 12.5997 27.3437 11.7997C27.0625 11.4685 26.9812 11.1997 27.0125 10.7435C27.0812 9.81846 28.075 9.27471 28.9312 9.69971Z" fill="#FF69B4"/>
</svg>
